<?xml version="1.0" encoding="utf-8"?>
<svg xmlns="http://www.w3.org/2000/svg" style="margin: auto; background: none; display: block; shape-rendering: auto; animation-play-state: running; animation-delay: 0s;" width="280" height="250" preserveAspectRatio="xMidYMid">
<style type="text/css" style="animation-play-state: running; animation-delay: 0s;">
  text {
    text-anchor: middle; font-size: 80px; opacity: 0;
  }
</style>
<g style="transform-origin: 140px 125px; transform: scale(1); animation-play-state: running; animation-delay: 0s;">
<g transform="translate(140,125)" style="animation-play-state: running; animation-delay: 0s;">
  <g transform="translate(0,0)" style="animation-play-state: running; animation-delay: 0s;"><g class="path" style="transform: matrix(1, 0, 0, 1, 0, 0); transform-origin: -107px -8.6768px; animation: 1s linear -0.5775s infinite normal forwards running bounce-29f7008e-9339-431b-af45-766124963c39;"><path d="M4.64-59.92L15.60-61.92L14.56-20.80L15.44-2L4.64 0L5.60-19.44L4.64-59.92" fill="#51cacc" stroke="none" stroke-width="none" transform="translate(-117.1199893951416,22.283200583457948)" style="fill: rgb(81, 202, 204); animation-play-state: running; animation-delay: 0s;"></path></g><g class="path" style="transform: matrix(1, 0, 0, 1, 0, 0); transform-origin: -77.6px 2.1232px; animation: 1s linear -0.495s infinite normal forwards running bounce-29f7008e-9339-431b-af45-766124963c39;"><path d="M22.48-16.72L22.48-16.72Q22.48-26.96 28-34.08L28-34.08L28-34.08Q33.52-41.20 40.92-41.20L40.92-41.20L40.92-41.20Q48.32-41.20 52.44-36.40L52.44-36.40L52.44-36.40Q56.56-31.60 56.56-23.68L56.56-23.68L56.56-23.68Q56.56-13.12 51.24-6.12L51.24-6.12L51.24-6.12Q45.92 0.88 37.84 0.88L37.84 0.88L37.84 0.88Q31.20 0.88 26.84-4.12L26.84-4.12L26.84-4.12Q22.48-9.12 22.48-16.72L22.48-16.72zM47.60-19.52L47.60-19.52L47.60-19.52Q47.60-31.12 39.68-31.12L39.68-31.12L39.68-31.12Q31.44-31.12 31.44-20.24L31.44-20.24L31.44-20.24Q31.44-14.56 33.76-11.36L33.76-11.36L33.76-11.36Q36.08-8.16 39.88-8.16L39.88-8.16L39.88-8.16Q43.68-8.16 45.64-11.08L45.64-11.08L45.64-11.08Q47.60-14 47.60-19.52" fill="#51cacc" stroke="none" stroke-width="none" transform="translate(-117.1199893951416,22.283200583457948)" style="fill: rgb(157, 248, 113); animation-play-state: running; animation-delay: 0s;"></path></g><g class="path" style="transform: matrix(1, 0, 0, 1, 0, 0); transform-origin: -39.76px 1.8032px; animation: 1s linear -0.4125s infinite normal forwards running bounce-29f7008e-9339-431b-af45-766124963c39;"><path d="M71.44 0L71.44 0Q66.72 0 63.72-3L63.72-3L63.72-3Q60.72-6 60.72-11.08L60.72-11.08L60.72-11.08Q60.72-16.16 65.36-19.88L65.36-19.88L65.36-19.88Q70-23.60 76.64-23.60L76.64-23.60L82.08-23.60L82.08-24.96L82.08-24.96Q82.08-28.88 80.48-30.32L80.48-30.32L80.48-30.32Q78.88-31.76 74.48-31.76L74.48-31.76L74.48-31.76Q72.64-31.76 70.12-31L70.12-31L70.12-31Q67.60-30.24 64.48-28.64L64.48-28.64L62.16-34.96L62.16-34.96Q65.60-37.36 70.52-39.28L70.52-39.28L70.52-39.28Q75.44-41.20 78.64-41.20L78.64-41.20L78.64-41.20Q91.20-41.20 91.20-29.04L91.20-29.04L91.20-13.36L91.20-13.36Q91.20-8.88 94-3.36L94-3.36L85.52 0.24L85.52 0.24Q83.52-3.60 82.56-6.64L82.56-6.64L82.56-6.64Q78.16 0 71.44 0L71.44 0zM74.80-8.16L74.80-8.16L74.80-8.16Q78-8.16 82.08-11.44L82.08-11.44L82.08-16.80L82.08-16.80Q77.84-17.76 75.20-17.76L75.20-17.76L75.20-17.76Q70.16-17.76 70.16-13.28L70.16-13.28L70.16-13.28Q70.16-10.96 71.44-9.56L71.44-9.56L71.44-9.56Q72.72-8.16 74.80-8.16" fill="#51cacc" stroke="none" stroke-width="none" transform="translate(-117.1199893951416,22.283200583457948)" style="fill: rgb(224, 255, 119); animation-play-state: running; animation-delay: 0s;"></path></g><g class="path" style="transform: matrix(1, 0, 0, 1, 0, 0); transform-origin: -1.27999px -8.2368px; animation: 1s linear -0.33s infinite normal forwards running bounce-29f7008e-9339-431b-af45-766124963c39;"><path d="M122.08-7.84L122.08-7.84L122.08-7.84Q115.84 0 111.28 0L111.28 0L111.28 0Q105.60 0 101.96-4.64L101.96-4.64L101.96-4.64Q98.32-9.28 98.32-16.56L98.32-16.56L98.32-16.56Q98.32-26.56 103.88-33.44L103.88-33.44L103.88-33.44Q109.44-40.32 117.52-40.32L117.52-40.32L122-39.68L122-41.20L121.04-59.92L132-61.92L130.96-20.80L130.96-13.76L130.96-13.76Q130.96-8.96 133.36-2.72L133.36-2.72L124.72 0.88L124.72 0.88Q122.40-3.92 122.08-7.84zM107.28-20.72L107.28-20.72L107.28-20.72Q107.28-15.60 109.16-12.72L109.16-12.72L109.16-12.72Q111.04-9.84 114.60-9.84L114.60-9.84L114.60-9.84Q118.16-9.84 122-12.72L122-12.72L122-30L122-30Q117.20-30.96 114.88-30.96L114.88-30.96L114.88-30.96Q111.28-30.96 109.28-28.40L109.28-28.40L109.28-28.40Q107.28-25.84 107.28-20.72" fill="#51cacc" stroke="none" stroke-width="none" transform="translate(-117.1199893951416,22.283200583457948)" style="fill: rgb(222, 157, 214); animation-play-state: running; animation-delay: 0s;"></path></g><g class="path" style="transform: matrix(1, 0, 0, 1, 0, 0); transform-origin: 29.32px 1.9232px; animation: 1s linear -0.2475s infinite normal forwards running bounce-29f7008e-9339-431b-af45-766124963c39;"><path d="M141.12-38.72L151.84-40.72L150.88-20.80L151.76-2L141.04 0L142.00-19.44L141.12-38.72" fill="#51cacc" stroke="none" stroke-width="none" transform="translate(-117.1199893951416,22.283200583457948)" style="fill: rgb(255, 112, 142); animation-play-state: running; animation-delay: 0s;"></path></g><g class="path" style="transform: matrix(1, 0, 0, 1, 0, 0); transform-origin: 29.68px -30.5168px; animation: 1s linear -0.165s infinite normal forwards running bounce-29f7008e-9339-431b-af45-766124963c39;"><path d="M140.56-52.44L140.56-52.44L140.56-52.44Q140.56-55.12 142.64-57.24L142.64-57.24L142.64-57.24Q144.72-59.36 147.44-59.36L147.44-59.36L147.44-59.36Q150.16-59.36 151.60-57.88L151.60-57.88L151.60-57.88Q153.04-56.40 153.04-53.44L153.04-53.44L153.04-53.44Q153.04-50.48 151.00-48.36L151.00-48.36L151.00-48.36Q148.96-46.24 146.28-46.24L146.28-46.24L146.28-46.24Q143.60-46.24 142.08-48L142.08-48L142.08-48Q140.56-49.76 140.56-52.44" fill="#51cacc" stroke="none" stroke-width="none" transform="translate(-117.1199893951416,22.283200583457948)" style="fill: rgb(81, 202, 204); animation-play-state: running; animation-delay: 0s;"></path></g><g class="path" style="transform: matrix(1, 0, 0, 1, 0, 0); transform-origin: 59.6px 2.1232px; animation: 1s linear -0.0825s infinite normal forwards running bounce-29f7008e-9339-431b-af45-766124963c39;"><path d="M183.84-20.24L183.84-20.24Q183.84-25.76 182.88-27.60L182.88-27.60L182.88-27.60Q181.92-29.44 178.40-29.44L178.40-29.44L178.40-29.44Q174.88-29.44 170.40-26.64L170.40-26.64L170.40-20.80L171.28-2L160.56 0L161.52-19.44L161.52-19.44Q161.20-30.16 159.76-38.64L159.76-38.64L169.44-40.72L169.44-40.72Q170.00-36.08 170.24-31.68L170.24-31.68L170.24-31.68Q171.44-33.28 172.96-34.84L172.96-34.84L172.96-34.84Q174.48-36.40 177.76-38.36L177.76-38.36L177.76-38.36Q181.04-40.32 184.68-40.32L184.68-40.32L184.68-40.32Q188.32-40.32 190.80-37.48L190.80-37.48L190.80-37.48Q193.28-34.64 193.28-29.76L193.28-29.76L192.80-20.80L193.68-1.60L182.88 0.40L183.84-20.24" fill="#51cacc" stroke="none" stroke-width="none" transform="translate(-117.1199893951416,22.283200583457948)" style="fill: rgb(157, 248, 113); animation-play-state: running; animation-delay: 0s;"></path></g><g class="path" style="transform: matrix(1, 0, 0, 1, 0, 0); transform-origin: 102.16px 10.4832px; animation: 1s linear 0s infinite normal forwards running bounce-29f7008e-9339-431b-af45-766124963c39;"><path d="M199.68 7.92L199.68 7.92L199.68 7.92Q199.68 0.88 212.80-3.12L212.80-3.12L212.80-3.12Q209.68-4.72 209.68-7.28L209.68-7.28L209.68-7.28Q209.68-8.32 210.48-9.36L210.48-9.36L210.48-9.36Q211.28-10.40 212.80-11.52L212.80-11.52L212.80-12.16L212.80-12.16Q207.04-12.16 203.64-15.36L203.64-15.36L203.64-15.36Q200.24-18.56 200.24-23.92L200.24-23.92L200.24-23.92Q200.24-30.88 205.92-36.04L205.92-36.04L205.92-36.04Q211.60-41.20 219.36-41.20L219.36-41.20L219.36-41.20Q221.36-41.20 225.20-40.40L225.20-40.40L225.20-40.40Q229.04-39.60 232.72-39.60L232.72-39.60L238.88-39.60L238.08-32.64L232.08-33.36L232.08-33.36Q232.88-31.04 232.88-28.08L232.88-28.08L232.88-28.08Q232.88-25.12 231.48-22.20L231.48-22.20L231.48-22.20Q230.08-19.28 228.12-17.52L228.12-17.52L228.12-17.52Q226.16-15.76 224.20-14.44L224.20-14.44L224.20-14.44Q222.24-13.12 220.84-12.12L220.84-12.12L220.84-12.12Q219.44-11.12 219.44-10.32L219.44-10.32L219.44-10.32Q219.44-8.80 222.64-7.68L222.64-7.68L222.64-7.68Q231.12-4.24 234.12-1.84L234.12-1.84L234.12-1.84Q237.12 0.56 237.12 4.08L237.12 4.08L237.12 4.08Q237.12 10 231.16 13.80L231.16 13.80L231.16 13.80Q225.20 17.60 216.96 17.60L216.96 17.60L216.96 17.60Q208.72 17.60 204.20 14.96L204.20 14.96L204.20 14.96Q199.68 12.32 199.68 7.92zM223.84-25.68L223.84-25.68L223.84-25.68Q223.84-29.60 222.08-31.44L222.08-31.44L222.08-31.44Q220.32-33.28 216.56-33.28L216.56-33.28L216.56-33.28Q209.28-33.28 209.28-26.12L209.28-26.12L209.28-26.12Q209.28-18.96 217.04-18.96L217.04-18.96L217.04-18.96Q223.84-18.96 223.84-25.68zM226.72 5.28L226.72 5.28L226.72 5.28Q226.72 3.84 225.20 2.60L225.20 2.60L225.20 2.60Q223.68 1.36 219.76-0.32L219.76-0.32L219.76-0.32Q213.92 1.28 211.72 2.64L211.72 2.64L211.72 2.64Q209.52 4 209.52 6L209.52 6L209.52 6Q209.52 8 211.72 9.24L211.72 9.24L211.72 9.24Q213.92 10.48 217.84 10.48L217.84 10.48L217.84 10.48Q221.76 10.48 224.24 9.04L224.24 9.04L224.24 9.04Q226.72 7.60 226.72 5.28" fill="#51cacc" stroke="none" stroke-width="none" transform="translate(-117.1199893951416,22.283200583457948)" style="fill: rgb(224, 255, 119); animation-play-state: running; animation-delay: 0s;"></path></g></g>
</g>
</g>
<style id="bounce-29f7008e-9339-431b-af45-766124963c39" data-anikit="">@keyframes bounce-29f7008e-9339-431b-af45-766124963c39
{
  0% {
    animation-timing-function: cubic-bezier(0.1361,0.2514,0.2175,0.8786);
    transform: translate(0,0px) scaleY(1);
  }
  37% {
    animation-timing-function: cubic-bezier(0.7674,0.1844,0.8382,0.7157);
    transform: translate(0,-39.96px) scaleY(1);
  }
  72% {
    animation-timing-function: cubic-bezier(0.1118,0.2149,0.2172,0.941);
    transform: translate(0,0px) scaleY(1);
  }
  87% {
    animation-timing-function: cubic-bezier(0.7494,0.2259,0.8209,0.6963);
    transform: translate(0,19.900000000000002px) scaleY(0.602);
  }
  100% {
    transform: translate(0,0px) scaleY(1);
  }
}</style></svg>